<svg width="20" height="20" viewBox="0 0 20 20" fill="none" xmlns="http://www.w3.org/2000/svg">
<path d="M15.625 0H4.375C3.87772 0 3.40079 0.197552 3.04916 0.549183C2.69753 0.900814 2.5 1.37772 2.5 1.875V20H17.5V1.875C17.5 1.37772 17.3025 0.900814 16.9508 0.549183C16.5992 0.197552 16.1223 0 15.625 0ZM8.75 18.75V15H11.25V18.75H8.75ZM16.25 18.75H12.5V14.375C12.5 14.2092 12.4341 14.0503 12.3169 13.9331C12.1997 13.8159 12.0408 13.75 11.875 13.75H8.125C7.95924 13.75 7.80028 13.8159 7.68307 13.9331C7.56586 14.0503 7.5 14.2092 7.5 14.375V18.75H3.75V1.875C3.75 1.70924 3.81586 1.55028 3.93307 1.43307C4.05028 1.31586 4.20924 1.25 4.375 1.25H15.625C15.7908 1.25 15.9497 1.31586 16.0669 1.43307C16.1841 1.55028 16.25 1.70924 16.25 1.875V18.75ZM6.66667 4.16667H8.33333V5.83333H6.66667V4.16667ZM11.6667 4.16667H13.3333V5.83333H11.6667V4.16667ZM6.66667 9.16667H8.33333V10.8333H6.66667V9.16667ZM11.6667 9.16667H13.3333V10.8333H11.6667V9.16667Z" fill="white" fill-opacity="0.3"/>
</svg>
