<svg width="263" height="35" viewBox="0 0 263 35" fill="none" xmlns="http://www.w3.org/2000/svg">
<path d="M1.02539 27H14.8682V23.0693H7.2876L14.8682 7.32227H1.02539V11.2407H8.60596L1.02539 27ZM30.7178 11.2163V7.32227H18.8525V27H30.7178V23.0693H22.8076V19.0044H29.5947V15.0615H22.8076V11.2163H30.7178ZM47.7026 7.32227L42.6489 18.748L37.6074 7.32227H33.4204L42.5879 27.4883H42.7344L51.9385 7.32227H47.7026ZM62.6978 27.3784C68.3374 27.3784 72.9517 22.7886 72.9517 17.1855C72.9517 11.5337 68.3374 6.91943 62.71 6.91943C57.0825 6.91943 52.4805 11.5337 52.4805 17.1855C52.4805 22.7886 57.0825 27.3784 62.6978 27.3784ZM62.6978 23.3745C59.2676 23.3745 56.4722 20.5791 56.4722 17.1611C56.4722 13.7188 59.2676 10.9111 62.6978 10.9111C66.1401 10.9111 68.9478 13.7188 68.9478 17.1611C68.9478 20.5791 66.1401 23.3745 62.6978 23.3745Z" fill="white"/>
<path d="M97.0332 24.6846C99.125 24.6846 100.716 23.7705 101.894 22.6016L100.971 21.3184C99.9512 22.3203 98.5889 23.0762 96.9893 23.0762C94.0889 23.0762 91.3643 20.624 91.3643 17.4248C91.3643 14.2168 94.1152 11.7559 96.9629 11.7559C98.5186 11.7559 99.9424 12.4854 100.962 13.5312L101.894 12.2744C100.61 10.9824 98.8438 10.1475 97.0244 10.1299C93.0518 10.1299 89.7471 13.4434 89.7471 17.4248C89.7471 21.4414 93.0957 24.6846 97.0332 24.6846ZM113.342 24.6846C117.359 24.6846 120.637 21.415 120.637 17.4248C120.637 13.4082 117.359 10.1299 113.351 10.1299C109.352 10.1299 106.074 13.4082 106.074 17.4248C106.074 21.415 109.352 24.6846 113.342 24.6846ZM113.342 23.0674C110.231 23.0674 107.691 20.5273 107.691 17.416C107.691 14.2959 110.231 11.7383 113.342 11.7383C116.471 11.7383 119.02 14.2959 119.02 17.416C119.02 20.5273 116.471 23.0674 113.342 23.0674ZM136.674 24.5L132.464 18.7871C134.186 18.2686 135.443 16.6865 135.443 14.8496C135.443 12.3535 133.299 10.332 130.671 10.332H126.487L126.496 24.5H128.096V18.9717H130.741L134.696 24.5H136.674ZM128.087 17.6182V11.9141H130.723C132.393 11.9141 133.8 13.1797 133.8 14.8145C133.8 16.3438 132.411 17.627 130.723 17.627L128.087 17.6182ZM141.917 24.5H143.517V19.2705H146.408C149.151 19.2705 151.392 17.3105 151.392 14.9023C151.392 12.3887 149.151 10.332 146.408 10.332H141.917V24.5ZM146.408 17.6973L143.517 17.6885V11.9141H146.408C148.272 11.9141 149.792 13.25 149.792 14.8848C149.792 16.4404 148.272 17.7061 146.408 17.6973ZM163.464 24.6846C167.481 24.6846 170.759 21.415 170.759 17.4248C170.759 13.4082 167.481 10.1299 163.473 10.1299C159.474 10.1299 156.196 13.4082 156.196 17.4248C156.196 21.415 159.474 24.6846 163.464 24.6846ZM163.464 23.0674C160.353 23.0674 157.813 20.5273 157.813 17.416C157.813 14.2959 160.353 11.7383 163.464 11.7383C166.593 11.7383 169.142 14.2959 169.142 17.416C169.142 20.5273 166.593 23.0674 163.464 23.0674ZM186.796 24.5L182.586 18.7871C184.309 18.2686 185.565 16.6865 185.565 14.8496C185.565 12.3535 183.421 10.332 180.793 10.332H176.609L176.618 24.5H178.218V18.9717H180.863L184.818 24.5H186.796ZM178.209 17.6182V11.9141H180.846C182.516 11.9141 183.922 13.1797 183.922 14.8145C183.922 16.3438 182.533 17.627 180.846 17.627L178.209 17.6182ZM202.314 24.5H204.054L197.497 10.1123H197.322L190.774 24.5H192.505L193.542 22.1709H201.277L202.314 24.5ZM194.166 20.7822L197.418 13.4961L200.662 20.7822H194.166ZM216.39 10.332H206.564V11.9141H210.686V24.5H212.286V11.9141H216.39V10.332ZM221.933 24.5H223.532V10.332H221.933V24.5ZM236.642 24.6846C240.659 24.6846 243.937 21.415 243.937 17.4248C243.937 13.4082 240.659 10.1299 236.651 10.1299C232.652 10.1299 229.374 13.4082 229.374 17.4248C229.374 21.415 232.652 24.6846 236.642 24.6846ZM236.642 23.0674C233.531 23.0674 230.991 20.5273 230.991 17.416C230.991 14.2959 233.531 11.7383 236.642 11.7383C239.771 11.7383 242.32 14.2959 242.32 17.416C242.32 20.5273 239.771 23.0674 236.642 23.0674ZM259.578 10.2969V20.8877L249.875 10.1123H249.787V24.5176H251.387V13.9355L261.099 24.7197H261.178V10.2969H259.578Z" fill="white"/>
</svg>
